<?xml version="1.0" standalone="no"?><!DOCTYPE svg PUBLIC "-//W3C//DTD SVG 1.1//EN" "http://www.w3.org/Graphics/SVG/1.1/DTD/svg11.dtd"><svg t="1553221112936" class="icon" style="" viewBox="0 0 1024 1024" version="1.1" xmlns="http://www.w3.org/2000/svg" p-id="4668" xmlns:xlink="http://www.w3.org/1999/xlink" width="200" height="200"><defs><style type="text/css"></style></defs><path d="M258.6 747.6c8.3 0.9 473.4 76.7 657.9-12S634 565.2 574.4 573.8c-59.6 8.6-188.7 62.4-188.7 62.4L258.6 747.6z" fill="#EFEFEF" p-id="4669"></path><path d="M847.1 446.8c-0.6-6.2-6.2-10.8-12.4-10.2l-2.4 0.2 4.2-8.6c2.8-5.6 0.5-12.4-5.2-15.2-5.6-2.8-12.4-0.5-15.2 5.2l-6.2 12.6c-1.2 0.2-2.5 0.6-3.6 1.2-3.2 1.8-5 5-5.4 8.4-5 1.6-8.5 6.3-8 11.8 0.6 6.2 6.2 10.8 12.4 10.2l2.5-0.2c1 0.4 2.1 0.7 3.2 0.8l7 12.2c3.1 5.4 10.1 7.3 15.5 4.2 5.4-3.1 7.3-10.1 4.2-15.5l-2.5-4.4 1.8-0.2c6.2-0.7 10.7-6.3 10.1-12.5z" fill="#9E6200" p-id="4670"></path><path d="M822.4 444.1c8.5 142.6-116 231.3-275.6 240.8-159.6 9.6-293.8-63.6-302.4-206.2-8.5-142.6 116-230.5 275.6-240.1s293.8 62.9 302.4 205.5z" fill="#BB7C0D" p-id="4671"></path><path d="M257.4 392.1c36.2-38.2 143.5-136.3 304.1-154-13.6-0.4-27.4-0.2-41.5 0.6-124.1 7.4-227 62.3-262.6 153.4z" fill="#FFFFFF" opacity=".1" p-id="4672"></path><path d="M584.3 681.1c0.9-0.1 1.7-0.2 2.6-0.4 139.8-20.9 243.3-106.2 235.5-236.6-2.5-41.8-15.9-77.5-37.5-107-18.7 55.7-72.2 189.9-175.6 272-39.1-130.2-125.8-175-125.8-175l-27.4 62.2-22.9 180.4c9.8 2.2 19.8 3.8 30 5.2 26.7 3.6 54.7 4.7 83.6 3 6.1-0.4 12.1-0.9 18.1-1.5 1.4-0.1 2.8-0.3 4.2-0.5 5.1-0.5 10.2-1.1 15.2-1.8z" fill="#B26E02" p-id="4673"></path><path d="M485 287c29.7-8 57.2-2 61.4 13.5 3.9 14.6-14.3 32.3-41.4 41-1.6 0.5-3.3 1-4.9 1.5" fill="#71CF47" p-id="4674"></path><path d="M500 342.9c-29.7 8-57.2 2-61.4-13.5C434.5 314 455.3 295 485 287" fill="#FFD000" p-id="4675"></path><path d="M499.4 292.2s10.5 0.9 18.7 3.9-4 0.8-1.5 4.3-0.8 5.3 7.1 3.7c7.9-1.6 10.8 2.4 10.8 2.4s-7.4-1.1-10.6 6.1-8 11.8-8 11.8-13.1 4.1-9-1.7c4.2-5.8 9.6-7.8 3.8-11.1-5.7-3.2-7.5 1.1-9.5-5.1s-3.6-1.3-2.8-7.8-1.6-6.8 1-6.5z" fill="#FFFFFF" opacity=".39" p-id="4676"></path><path d="M488.4 286.3c-1.1 0.3-2.2 0.4-3.4 0.7-4.5 1.2-8.7 2.7-12.7 4.3l11.5 54.7c5.3-0.5 10.7-1.5 16.3-3 1.2-0.3 2.3-0.8 3.5-1.2l-15.2-55.5z" fill="#FF6600" p-id="4677"></path><path d="M377.8 734.4c-117.9 42.1-261.5-6.3-300.6-116-1.7-4.7-3.1-9.4-4.5-14.1 34.3 78.6 150.4 109.5 264.5 68.8 114.4-40.8 184.7-138.5 161-221.3 2.1 4.6 4 9.4 5.7 14.2 39.3 109.9-8.2 226.4-126.1 268.4z" fill="#C08115" p-id="4678"></path><path d="M504 466.1c-1.7-4.9-3.6-9.6-5.7-14.2 17.2 60.2-15.4 128.3-78.5 176.7-18.5 44.9-48.2 94.2-94.6 118.4 17.8-2.4 35.5-6.5 52.6-12.6 117.9-42 165.4-158.5 126.2-268.3z" fill="#A96B00" p-id="4679"></path><path d="M341 677.6c-114.1 39.2-230.2 9.4-264.5-66.3-1.1-2.4-2.1-4.8-3-7.3-9-24.4-8.9-50.4-1.1-75.9 18.1-59.2 77.6-115.8 159.9-144 82.7-28.4 166.4-20.6 219.4 14.7 22.4 14.9 39.2 34.7 48.2 58.9 0.9 2.3 1.6 4.6 2.3 6.9 23.5 79.6-46.8 173.7-161.2 213z" fill="#88DE67" p-id="4680"></path><path d="M87 623.9c-1.1-2.4-2.1-4.8-3-7.3-9-24.4-8.9-50.4-1.1-75.9 18.1-59.2 77.6-115.8 159.9-144 82.7-28.4 166.4-20.6 219.4 14.7 8.7 5.8 16.6 12.4 23.5 19.7-9-12.5-20.4-23.3-33.9-32.3-53.1-35.4-136.8-43.2-219.5-14.8-82.2 28.3-141.7 84.9-159.9 144-7.8 25.5-7.9 51.5 1.1 75.9 0.9 2.5 1.9 4.9 3 7.3 5.3 11.8 12.8 22.3 21.8 31.7-4.3-5.9-8.2-12.2-11.3-19z" fill="#FFFFFF" opacity=".2" p-id="4681"></path><path d="M502.1 464.6c-0.7-2.3-1.4-4.6-2.3-6.9-8.9-24.1-25.8-44-48.2-58.9-3.4-2.3-6.9-4.4-10.6-6.5 6.8 8.9 12.4 18.7 16.4 29.4 0.9 2.3 1.6 4.6 2.3 6.9 23.7 79.6-46.7 173.7-161 213-77.4 26.6-155.6 21.4-208.7-8.3 45.2 59 148.8 79.3 251 44.3 114.4-39.3 184.7-133.4 161.1-213z" fill="#5CBE2C" p-id="4682"></path><path d="M356.2 519.2c54.9-12.5 99-24.9 98.3-27.8-0.7-2.9-45.7 4.9-100.7 17.3-17.1 3.9-33.1 7.7-47 11.3 8.1-6.5 12.6-10.7 12-11.6-0.3-0.5-2 0-4.8 1.3 6.8-4.9 13.9-10.1 21.2-15.5 45.3-33.5 80.8-62.2 79.3-64.3-1.5-2.1-39.5 23.4-84.8 56.8-7.1 5.3-14 10.4-20.5 15.3 4.9-10.2 7.3-16.6 6.3-17.1-0.1 0-0.3 0-0.4 0.1 20.1-43.3 33.1-77.3 30-78.8-3.2-1.5-22 31-43.6 74.8-0.3-8.9-1-14.1-2-14.1-1.5-0.1-3.5 11.3-5.5 29.6-1.7 3.6-3.4 7.2-5 10.7-2.9-3.8-5.6-7.3-8.1-10.3v-0.6c0-50-2-90.5-4.6-90.5-2.3 0-4.3 35.3-4.5 80.6-2.8-2.8-4.6-4.3-5.3-3.8-1 0.7 1 5.8 5.3 13.9 0 7.7 0.1 15.1 0.1 22.2-3.1-1.9-6.4-3.9-9.7-5.9-2.1-4.3-4.2-8.6-6.5-13-22.4-44.7-42.1-80.1-44-79.1-1.9 1 14.6 38 37 82.7 0.4 0.7 0.7 1.4 1.1 2.1-2-1.2-4.1-2.4-6.2-3.6-43.3-25-79.8-42.7-81.6-39.6-1.8 3.1 31.8 25.9 75.1 50.9 4.4 2.5 8.6 4.9 12.8 7.3-1.4 0-2.3 0.2-2.4 0.6-0.3 1 4.7 3.4 13.5 6.6 0.2 0.4 0.4 0.7 0.6 1.1-8.6-1.8-17.8-3.7-27.3-5.5-51.2-9.9-93.2-15.6-93.7-12.8-0.6 2.9 40.5 13.2 91.7 23.1 10.6 2 20.7 3.9 30.2 5.5-0.5 0.4-0.9 0.8-1.4 1.2-8.7 0.4-18 0.9-27.5 1.5-52.1 3.3-94.1 8.4-93.9 11.3 0.2 2.9 42.5 2.6 94.6-0.7 3.8-0.2 7.6-0.5 11.3-0.8l-8.1 5.4c-43.3 29.2-77 54.8-75.4 57.2 1.6 2.4 38-19.3 81.3-48.4 8.1-5.4 15.8-10.7 23-15.8 1.3-0.1 2.5-0.2 3.8-0.3-1.7 4.2-3.4 8.1-4.8 11.8-0.6 1-1.1 1.9-1.7 2.8-26.1 45.2-45.2 83-42.7 84.4 2.5 1.5 25.7-34 51.8-79.2 0.3-0.5 0.5-0.9 0.8-1.3 0.8 11.7 1.7 18.7 2.8 18.7 1.2 0 2.3-9.5 3.1-24.9 3.5 6.2 6.4 11.2 8.6 14.7-2.1 44.7-1.9 78.9 0.8 79 2.9 0.2 7.7-41.9 10.6-94 0.3-5.1 0.5-10.1 0.8-15 1 0.4 1.9 0.9 2.8 1.3 2.9 4.4 5.8 8.8 8.9 13.4 28 41.5 53 73.6 55.9 71.6 2.9-1.9-17.5-37.2-45.4-78.7l-5.1-7.5c3.1 0.2 5.4 0.3 6.9 0.1 6.6 1.8 13.5 3.7 20.6 5.6 54.5 14.4 99.3 23.6 100.1 20.5 0.8-3-42.7-17.1-97.2-31.5-14.7-3.9-28.6-7.4-41.2-10.3l-0.9-1.2c14.8-3 32.1-6.6 50.5-10.8z m-75.3-6.8c1 1.7 2.1 3.5 3.2 5.4-0.9 1.9-1.7 3.8-2.6 5.7-0.3 0.2-0.5 0.4-0.8 0.6 0.1-3.8 0.2-7.7 0.2-11.7z m0.9 41.4c1.1-1.9 2.1-3.8 3.2-5.6 1.7-0.2 3.3-0.3 4.9-0.5-0.3 4.4-0.6 8.8-0.8 13.3-0.2 2.8-0.3 5.5-0.4 8.3-1.9-4.4-4.2-9.6-6.9-15.5z" fill="#63BE38" p-id="4683"></path><path d="M305.8 589.2c-47.4 16.3-95.6 3.9-109.9-27.5-0.5-1-0.9-2-1.3-3-3.8-10.1-3.7-20.9-0.5-31.5 7.5-24.6 32.2-48.1 66.4-59.8 34.4-11.8 69.1-8.6 91.1 6.1 9.3 6.2 16.3 14.4 20 24.5 0.4 1 0.7 1.9 0.9 2.9 10 32.9-19.2 72-66.7 88.3z" fill="#FFE55E" p-id="4684"></path><path d="M300.5 575c-36.4 12.5-73.4 3-84.3-21.1-0.4-0.8-0.7-1.5-1-2.3-2.9-7.8-2.8-16.1-0.4-24.2 5.8-18.9 24.7-36.9 50.9-45.9 26.4-9.1 53-6.6 69.9 4.7 7.1 4.7 12.5 11.1 15.3 18.8 0.3 0.7 0.5 1.5 0.7 2.2 7.8 25.3-14.6 55.3-51.1 67.8z" fill="#FFEB82" opacity=".45" p-id="4685"></path><path d="M191.1 491.1s0-4.9-3.1-8c-3.1-3.1-6.6-4.5-8-3.2-1.4 1.3 0 4.9 3.1 8 3.1 3.2 8 3.2 8 3.2zM210.9 469.5c-1.4 1.3 0 4.9 3.1 8 3.1 3.1 8 3.2 8 3.2s0-4.9-3.1-8c-3.1-3.1-6.6-4.5-8-3.2zM227.3 445.5c-1.7 0.8-1.7 4.6 0.1 8.6s6.4 5.7 6.4 5.7 1.7-4.6-0.1-8.6-4.7-6.5-6.4-5.7zM273.9 429.3c-1.9-0.4-4.1 2.7-5 7-0.9 4.3 1.8 8.4 1.8 8.4s4.1-2.7 5-7c0.9-4.3 0.1-8-1.8-8.4zM177.5 515.8c4.3 0.2 8-3.1 8-3.1s-3.4-3.6-7.7-3.8c-4.3-0.2-7.9 1.2-8 3.1-0.1 1.9 3.4 3.7 7.7 3.8zM156.1 531.3c-0.2 1.9 3.1 3.8 7.4 4.3 4.3 0.5 8.2-2.6 8.2-2.6s-3.1-3.8-7.4-4.3c-4.4-0.5-8 0.7-8.2 2.6zM176.4 544c-4.1 1.5-6.8 4.2-6.1 6 0.7 1.8 4.5 2 8.6 0.5s6.1-6 6.1-6-4.5-2-8.6-0.5zM256.7 445.5c-1.8 0.5-2.4 4.3-1.3 8.5 1.1 4.2 5.4 6.7 5.4 6.7s2.4-4.3 1.3-8.5c-1.2-4.2-3.6-7.2-5.4-6.7zM297.7 436.9c-1.9-0.2-3.8 3.2-4.2 7.5-0.4 4.3 2.7 8.2 2.7 8.2s3.8-3.2 4.2-7.5c0.5-4.4-0.8-8.1-2.7-8.2zM323.1 427.7c-2.4 3.6-1.4 8.5-1.4 8.5s4.8-1 7.2-4.7c2.4-3.6 3-7.4 1.4-8.5-1.6-1.1-4.8 1-7.2 4.7zM344.3 444.9c1.7-4 1.6-7.9-0.2-8.6-1.8-0.7-4.6 1.9-6.2 5.9-1.7 4 0.2 8.6 0.2 8.6s4.5-1.9 6.2-5.9zM383 452.3c3.6-2.5 5.6-5.7 4.5-7.3-1.1-1.6-4.9-0.9-8.5 1.6-3.6 2.5-4.5 7.3-4.5 7.3s4.9 0.8 8.5-1.6zM380.9 474.2c3.6-2.5 5.6-5.7 4.5-7.3-1.1-1.6-4.9-0.9-8.5 1.6-3.6 2.5-4.5 7.3-4.5 7.3s4.9 0.9 8.5-1.6zM398.8 489c4.2-1.1 7.2-3.5 6.7-5.3-0.5-1.9-4.3-2.5-8.5-1.4s-6.7 5.3-6.7 5.3 4.3 2.5 8.5 1.4zM412.3 500.9c-4.2 1.1-6.7 5.3-6.7 5.3s4.3 2.5 8.5 1.4 7.2-3.5 6.7-5.3c-0.5-1.8-4.3-2.5-8.5-1.4zM393.8 524.9c-4.3-0.7-8.3 2.2-8.3 2.2s3 4 7.3 4.6c4.3 0.7 8-0.4 8.3-2.2 0.3-1.9-3-3.9-7.3-4.6zM385.4 549.6c0.5-1.9-2.5-4.2-6.7-5.3-4.2-1.1-8.5 1.4-8.5 1.4s2.5 4.2 6.7 5.3c4.2 1 8 0.4 8.5-1.4zM409.6 554.9c-4.2-1.1-8.5 1.4-8.5 1.4s2.5 4.2 6.7 5.3c4.2 1.1 8 0.5 8.5-1.4 0.5-1.8-2.5-4.2-6.7-5.3zM382.1 571.4c-4.2-1.1-8.5 1.4-8.5 1.4s2.5 4.2 6.7 5.3c4.2 1.1 8 0.5 8.5-1.4 0.5-1.8-2.5-4.2-6.7-5.3zM347.5 581.4c-3.4-2.8-8.3-2.3-8.3-2.3s0.5 4.9 3.9 7.7 7.1 3.8 8.3 2.3c1.2-1.5-0.5-4.9-3.9-7.7zM334.3 604.1s-0.7 4.9 1.9 8.4c2.6 3.5 6 5.4 7.5 4.2 1.5-1.1 0.7-4.9-1.9-8.4-2.6-3.5-7.5-4.2-7.5-4.2zM311.6 596.2s-2.6 4.2-1.6 8.4 3.3 7.3 5.1 6.9c1.9-0.4 2.6-4.2 1.6-8.4-0.9-4.2-5.1-6.9-5.1-6.9zM293.5 628c-0.3 4.3 0.9 8 2.8 8.1 1.9 0.2 3.7-3.2 4.1-7.6 0.3-4.3-2.8-8.1-2.8-8.1s-3.8 3.3-4.1 7.6zM277.3 614.7c-0.3 4.3 0.9 8 2.8 8.1 1.9 0.2 3.7-3.2 4.1-7.6 0.3-4.3-2.8-8.1-2.8-8.1s-3.7 3.3-4.1 7.6zM246.4 609.4c-1.4 4.1-1 8 0.8 8.6 1.8 0.6 4.4-2.3 5.8-6.4 1.4-4.1-0.8-8.6-0.8-8.6s-4.4 2.3-5.8 6.4zM225.2 621.7c-1.4 4.1-1 8 0.8 8.6 1.8 0.6 4.4-2.3 5.8-6.4 1.4-4.1-0.8-8.6-0.8-8.6s-4.4 2.3-5.8 6.4zM208 604.8c-2.9 3.3-4 6.9-2.6 8.2 1.4 1.3 4.9-0.4 7.8-3.6 2.9-3.3 2.6-8.2 2.6-8.2s-5 0.4-7.8 3.6zM187.4 600.8c-3.6 2.4-5.7 5.6-4.7 7.2 1.1 1.6 4.8 1 8.5-1.4 3.6-2.4 4.7-7.2 4.7-7.2s-4.9-1-8.5 1.4zM189.4 581.1c-3.7 2.3-5.9 5.5-4.9 7.1s4.8 1.1 8.5-1.2 4.9-7.1 4.9-7.1-4.8-1-8.5 1.2zM166 566.5c-4.2 1.2-7.2 3.6-6.7 5.4 0.5 1.8 4.3 2.4 8.5 1.2s6.7-5.4 6.7-5.4-4.3-2.4-8.5-1.2zM150.1 586.6c-3.9 2-6.3 5-5.4 6.7s4.7 1.5 8.6-0.5c3.9-2 5.4-6.7 5.4-6.7s-4.7-1.5-8.6 0.5zM158.6 494.6c4.2 0.9 8.4-1.7 8.4-1.7s-2.7-4.2-6.9-5.1c-4.2-0.9-8-0.2-8.4 1.7-0.5 1.9 2.6 4.2 6.9 5.1z" fill="#3E3822" p-id="4686"></path><path d="M226.409864 513.661428a14.6 22.2 53.254 1 0 35.577524-26.563128 14.6 22.2 53.254 1 0-35.577524 26.563128Z" fill="#FFFFFF" opacity=".4" p-id="4687"></path><path d="M260.285387 499.404002a7.4 9.4 65.23 1 0 17.070343-7.876762 7.4 9.4 65.23 1 0-17.070343 7.876762Z" fill="#FFFFFF" p-id="4688"></path></svg>